<?xml version="1.0" standalone="no"?>
<!DOCTYPE svg PUBLIC "-//W3C//DTD SVG 20010904//EN"
 "http://www.w3.org/TR/2001/REC-SVG-20010904/DTD/svg10.dtd">
<svg version="1.0" xmlns="http://www.w3.org/2000/svg"
 width="90" height="25pt" viewBox="0 0 983.000000 353.000000"
 preserveAspectRatio="xMidYMid meet">

<g transform="translate(0.000000,353.000000) scale(0.100000,-0.100000)"
fill="#6366f1" stroke="none">
<path d="M225 3429 c-4 -5 -15 -9 -26 -9 -23 0 -24 -8 -5 -29 13 -15 11 -16
-19 -15 -38 2 -69 -24 -78 -66 -3 -14 -9 -36 -13 -49 -5 -18 -4 -22 6 -16 10
6 11 2 7 -17 -14 -55 33 -145 70 -131 12 5 15 2 10 -10 -4 -11 -2 -14 8 -11 7
3 25 -2 40 -12 20 -13 38 -15 84 -11 33 4 71 12 85 18 24 12 86 91 86 111 0
14 28 39 32 29 2 -6 293 -11 731 -13 401 -2 718 0 705 4 -20 5 -18 6 9 7 24 1
31 -3 27 -13 -5 -13 25 -24 84 -32 13 -2 29 -7 35 -12 7 -5 32 -14 57 -21 103
-29 327 -155 398 -222 43 -42 60 -50 85 -37 11 5 17 5 17 -2 0 -5 -8 -10 -17
-10 -13 0 -11 -6 12 -30 15 -16 33 -26 39 -23 6 3 8 3 4 -2 -4 -4 9 -27 30
-50 20 -23 55 -66 77 -95 22 -30 52 -66 66 -82 15 -15 24 -29 22 -32 -3 -2 1
-14 7 -26 8 -16 17 -19 33 -14 19 6 20 5 9 -8 -10 -13 -8 -23 10 -59 13 -24
28 -47 33 -51 6 -4 10 -11 11 -15 1 -11 13 -43 27 -71 l11 -23 9 23 c5 13 6
42 3 66 -4 32 -2 42 8 42 15 0 30 -27 18 -32 -5 -2 0 -11 10 -20 27 -27 23 1
-8 53 -14 24 -23 36 -20 26 3 -11 2 -16 -4 -12 -6 3 -10 22 -10 41 0 24 -4 33
-12 28 -6 -4 -8 -3 -5 3 16 26 -209 343 -233 328 -5 -3 -12 0 -16 6 -4 8 -3 9
4 5 18 -11 14 3 -7 25 -11 12 -23 19 -28 16 -5 -3 -15 -1 -23 5 -12 8 -11 8 5
3 17 -5 17 -3 -5 22 -14 15 -33 34 -43 41 -10 8 -52 41 -92 73 -40 33 -76 59
-81 59 -4 0 -21 10 -38 23 -17 12 -62 38 -101 56 -38 18 -78 37 -87 42 -10 5
-27 9 -37 9 -11 0 -23 5 -26 10 -3 6 -17 10 -30 10 -13 0 -27 5 -30 11 -4 6
-13 8 -20 5 -7 -2 -25 2 -41 10 -18 10 -47 14 -76 11 -35 -2 -48 0 -48 10 0 7
-5 13 -11 13 -6 0 -9 -6 -6 -13 3 -8 -1 -14 -9 -14 -9 0 -12 7 -9 17 5 15 -9
18 -122 23 -156 8 -1117 9 -1125 1 -3 -3 -40 -7 -81 -10 -86 -5 -119 7 -147
54 -15 24 -23 28 -48 24 -16 -2 -33 1 -37 8 -5 8 -1 11 11 8 31 -5 30 16 -2
26 -16 5 -36 11 -44 14 -29 9 -110 10 -115 1z m117 -78 c8 12 9 11 5 -1 -2 -8
11 -34 29 -57 19 -23 34 -46 34 -52 0 -20 -23 -60 -31 -55 -8 4 -13 -8 -11
-26 0 -3 -11 -7 -26 -8 -15 -1 -28 -7 -30 -12 -2 -6 -15 -10 -28 -10 -13 0
-33 -6 -44 -12 -16 -10 -22 -10 -32 1 -11 12 -10 13 5 8 9 -4 17 -2 17 3 0 6
8 10 18 11 14 0 14 2 -3 8 -11 5 -26 6 -33 3 -7 -2 -12 -1 -11 4 4 23 -3 26
-21 9 -11 -10 -20 -16 -21 -14 -1 2 -2 24 -3 49 -3 52 4 73 15 44 7 -17 8 -17
8 4 1 12 -3 22 -9 22 -5 0 -10 5 -10 10 0 6 5 10 10 10 6 0 16 5 23 10 7 6 28
21 47 34 29 19 40 22 63 13 22 -7 31 -6 39 4z m48 -5 c0 -3 -4 -8 -10 -11 -5
-3 -10 -1 -10 4 0 6 5 11 10 11 6 0 10 -2 10 -4z m37 -22 c-3 -3 -12 -4 -19
-1 -8 3 -5 6 6 6 11 1 17 -2 13 -5z m793 -34 c0 -5 -2 -10 -4 -10 -3 0 -8 5
-11 10 -3 6 -1 10 4 10 6 0 11 -4 11 -10z m-363 -16 c-3 -3 -12 -4 -19 -1 -8
3 -5 6 6 6 11 1 17 -2 13 -5z m1428 -103 c3 -5 1 -12 -5 -16 -5 -3 -10 1 -10
9 0 18 6 21 15 7z m615 -505 c0 -3 -4 -8 -10 -11 -5 -3 -10 -1 -10 4 0 6 5 11
10 11 6 0 10 -2 10 -4z"/>
<path d="M7080 3075 c-167 -167 -310 -319 -317 -336 -15 -37 -18 -315 -4 -366
8 -26 6 -37 -8 -54 -15 -18 -27 -22 -71 -20 -29 1 -57 4 -62 7 -19 12 -38 -19
-38 -62 l0 -43 83 -3 82 -3 5 -66 5 -66 355 -354 355 -354 507 -5 508 -5 67
-66 c153 -149 213 -217 207 -234 -9 -23 -272 -284 -309 -307 -28 -17 -70 -18
-793 -18 -456 0 -770 4 -781 9 -15 8 -18 27 -19 135 l-1 126 542 2 542 3 3 41
c2 26 -2 45 -11 52 -11 9 -160 12 -583 10 l-569 -3 -3 -169 c-3 -206 -3 -206
-102 -206 l-66 0 -3 -45 -2 -45 73 0 c60 0 75 -3 85 -18 7 -12 11 -90 12 -227
1 -114 4 -212 7 -217 3 -4 476 -8 1051 -8 l1045 0 32 26 c17 14 160 154 318
310 246 243 287 288 290 316 l3 33 107 3 107 3 -2 37 c-1 20 -6 40 -10 43 -5
3 -41 4 -80 2 -40 -3 -84 0 -99 6 l-28 11 0 139 c0 102 -3 140 -12 143 -7 3
-89 4 -181 2 l-168 -4 -82 75 c-97 89 -73 66 -226 217 -68 68 -136 136 -150
152 -27 29 -89 67 -76 46 6 -9 2 -9 -12 -2 -13 7 -178 11 -475 12 -376 0 -462
3 -490 15 -18 8 -116 98 -217 200 -158 159 -186 183 -200 172 -14 -10 -14 -10
-4 4 11 14 5 24 -40 68 l-52 51 -5 133 c-8 214 -27 178 220 423 l215 214 547
0 546 0 14 -30 c7 -16 16 -30 20 -30 5 0 8 -8 8 -17 0 -33 63 -65 129 -66 50
0 66 4 96 27 41 32 75 92 75 136 0 58 -49 140 -84 140 -9 0 -16 5 -16 10 0 6
-34 10 -81 10 -71 0 -80 -2 -77 -17 1 -10 -1 -24 -6 -32 -5 -8 -3 -17 5 -23
12 -8 11 -9 -1 -5 -8 2 -14 14 -13 26 3 24 0 26 -19 9 -56 -52 -9 -49 -623
-48 l-568 0 -244 -242 -244 -243 3 -145 c1 -80 -1 -151 -5 -157 -10 -15 -134
-18 -157 -3 -13 8 -15 40 -12 207 l3 198 247 248 c136 137 263 261 283 277
l36 29 903 2 c759 1 904 -1 911 -12 12 -19 12 -436 0 -444 -5 -3 -85 -5 -178
-4 -261 2 -257 2 -821 0 l-533 -1 -189 -187 c-105 -104 -190 -196 -193 -209
-3 -18 38 -65 230 -256 l233 -233 484 0 484 0 48 -45 c27 -24 91 -83 143 -132
51 -48 97 -85 102 -82 5 3 8 1 7 -5 -2 -6 31 -41 72 -80 41 -38 72 -72 68 -76
-4 -5 -37 -7 -74 -6 -43 1 -63 -2 -59 -9 3 -5 1 -10 -5 -10 -7 0 -10 -13 -8
-32 l3 -33 222 -5 223 -5 108 -107 c93 -94 137 -130 117 -99 -3 5 -1 12 4 16
6 3 8 12 4 20 -6 17 13 20 23 4 3 -6 1 -15 -6 -19 -7 -4 -9 -13 -5 -20 4 -7 2
-16 -6 -21 -8 -5 -9 -9 -3 -9 20 0 43 35 40 63 -4 33 2 35 14 5 5 -13 9 -17 9
-8 1 8 -55 72 -123 142 l-125 128 -103 1 c-57 1 -107 1 -111 0 -5 -1 -6 2 -3
7 6 9 -43 61 -49 52 -2 -3 -7 -1 -12 4 -5 6 -2 6 7 1 8 -4 2 6 -14 23 -16 17
-34 29 -39 25 -6 -3 -7 -1 -4 4 10 16 -125 136 -135 121 -6 -9 -8 -8 -6 4 4
22 -231 241 -288 267 -42 20 -60 21 -502 21 l-458 0 -43 44 c-24 24 -49 43
-55 42 -6 -2 -7 -1 -2 2 4 2 -59 72 -140 154 l-149 149 155 149 155 149 784 3
c733 3 785 4 795 20 8 13 8 23 -2 38 -14 24 -16 41 -1 20 7 -10 9 75 6 273 -3
236 -6 290 -18 298 -8 5 -420 9 -970 9 l-956 0 -303 -305z m2237 93 c-3 -8 -6
-5 -6 6 -1 11 2 17 5 13 3 -3 4 -12 1 -19z m-453 -57 c-2 -2 5 -14 16 -26 12
-13 21 -37 22 -59 2 -49 -22 -67 -86 -63 -44 2 -52 6 -68 34 -17 28 -18 35 -4
66 8 19 22 40 33 45 17 10 97 13 87 3z m-124 -22 c0 -5 -5 -7 -11 -3 -7 4 -9
0 -5 -14 4 -11 2 -23 -4 -27 -11 -7 -14 37 -3 48 10 10 23 8 23 -4z m-13 -88
c-1 -11 -7 -17 -14 -14 -15 6 -15 6 -7 27 8 21 23 11 21 -13z m590 -93 c-3 -8
-6 -5 -6 6 -1 11 2 17 5 13 3 -3 4 -12 1 -19z m0 -60 c-3 -8 -6 -5 -6 6 -1 11
2 17 5 13 3 -3 4 -12 1 -19z m-242 -98 c3 -5 1 -10 -4 -10 -6 0 -11 5 -11 10
0 6 2 10 4 10 3 0 8 -4 11 -10z m-1710 -310 c-3 -5 -14 -10 -23 -9 -14 0 -13
2 3 9 27 11 27 11 20 0z m-640 -160 c-3 -5 -14 -10 -23 -9 -14 0 -13 2 3 9 27
11 27 11 20 0z m580 -360 l280 -280 498 0 499 0 122 -120 c66 -65 180 -177
252 -248 128 -125 132 -130 139 -180 4 -28 3 -71 -1 -94 -4 -24 -7 -47 -6 -51
2 -5 -2 -6 -7 -3 -13 8 -333 -313 -325 -326 4 -6 3 -8 -4 -5 -5 4 -44 -26 -84
-65 -41 -40 -84 -79 -96 -85 -16 -10 -133 -13 -472 -13 l-450 -1 -37 41 c-23
24 -46 40 -60 40 -13 0 -32 6 -43 12 -15 10 -22 10 -32 0 -6 -6 -20 -12 -31
-12 -10 0 -34 -15 -53 -33 -29 -28 -34 -39 -35 -82 -1 -73 2 -87 24 -118 10
-16 17 -30 15 -32 -2 -2 -122 -5 -267 -6 -212 -1 -265 2 -272 12 -5 8 -8 91
-7 184 l3 170 813 3 812 2 209 206 c201 197 209 206 200 233 -9 26 -134 159
-144 154 -3 -2 -5 0 -4 3 2 12 -55 63 -64 57 -6 -3 -7 -2 -4 4 10 16 -135 153
-165 155 -15 1 -24 6 -21 11 3 5 -24 8 -63 7 -38 -2 -259 -2 -492 -1 l-424 1
-157 158 c-126 126 -161 156 -180 154 -20 -3 -23 0 -18 18 5 19 -16 44 -115
146 -67 68 -126 120 -131 117 -6 -3 -8 -2 -6 3 6 12 -48 64 -57 55 -4 -3 -4
-1 -1 6 9 15 -2 45 -14 37 -5 -3 -9 2 -9 11 0 9 4 14 9 11 5 -3 11 1 15 9 4
12 25 15 93 15 l89 0 279 -280z m922 78 c-3 -8 -6 -5 -6 6 -1 11 2 17 5 13 3
-3 4 -12 1 -19z m-997 -278 c0 -5 -4 -10 -10 -10 -5 0 -10 5 -10 10 0 6 5 10
10 10 6 0 10 -4 10 -10z m1848 -45 c-3 -3 -9 2 -12 12 -6 14 -5 15 5 6 7 -7
10 -15 7 -18z m-1738 -65 c0 -5 -2 -10 -4 -10 -3 0 -8 5 -11 10 -3 6 -1 10 4
10 6 0 11 -4 11 -10z m1400 4 c0 -8 -19 -13 -24 -6 -3 5 1 9 9 9 8 0 15 -2 15
-3z m40 -54 c0 -5 -4 -10 -10 -10 -5 0 -10 5 -10 10 0 6 5 10 10 10 6 0 10 -4
10 -10z m-45 -41 c2 -17 0 -18 -13 -5 -8 8 -11 19 -7 26 9 15 18 5 20 -21z
m348 -59 c-3 -11 -9 -20 -15 -20 -5 0 -4 9 2 20 6 11 12 20 14 20 2 0 2 -9 -1
-20z m302 0 c3 -5 1 -10 -4 -10 -6 0 -11 5 -11 10 0 6 2 10 4 10 3 0 8 -4 11
-10z m-485 -10 c0 -5 -4 -10 -9 -10 -6 0 -13 5 -16 10 -3 6 1 10 9 10 9 0 16
-4 16 -10z m670 4 c0 -8 -19 -13 -24 -6 -3 5 1 9 9 9 8 0 15 -2 15 -3z m-26
-22 c3 -5 -1 -9 -9 -9 -8 0 -12 4 -9 9 3 4 7 8 9 8 2 0 6 -4 9 -8z m4 -47 c-3
-3 -9 2 -12 12 -6 14 -5 15 5 6 7 -7 10 -15 7 -18z m54 3 c-7 -7 -12 -20 -12
-30 0 -22 -16 -24 -24 -2 -3 8 -2 12 3 9 5 -3 12 4 16 15 3 11 11 20 18 20 8
0 8 -3 -1 -12z m-1765 -14 c-3 -3 -12 -4 -19 -1 -8 3 -5 6 6 6 11 1 17 -2 13
-5z m250 0 c-3 -3 -12 -4 -19 -1 -8 3 -5 6 6 6 11 1 17 -2 13 -5z m523 -34 c0
-5 -2 -10 -4 -10 -3 0 -8 5 -11 10 -3 6 -1 10 4 10 6 0 11 -4 11 -10z m1129
-54 c9 -10 8 -15 -3 -19 -10 -4 -14 0 -13 14 2 23 1 23 16 5z m-322 -158 c14
-23 10 -280 -4 -309 -13 -26 -58 -71 -296 -293 -73 -68 -124 -123 -120 -130 3
-6 2 -7 -2 -3 -5 4 -39 -23 -77 -60 -78 -78 -131 -99 -207 -82 -29 6 -69 6
-118 -1 -155 -21 -976 -9 -1002 15 -2 2 12 22 30 44 l34 41 475 0 476 0 292
288 293 287 -1 108 0 107 109 0 c77 0 112 -4 118 -12z m-2554 -45 c-7 -2 -21
-2 -30 0 -10 3 -4 5 12 5 17 0 24 -2 18 -5z m-26 -125 c-3 -8 -6 -5 -6 6 -1
11 2 17 5 13 3 -3 4 -12 1 -19z m0 -439 c2 -16 -1 -19 -9 -11 -5 5 -7 15 -4
21 10 15 12 14 13 -10z m748 -9 c3 -5 1 -10 -4 -10 -6 0 -11 5 -11 10 0 6 2
10 4 10 3 0 8 -4 11 -10z m-47 -70 c39 -41 14 -119 -39 -120 -62 -1 -91 74
-48 122 27 31 57 30 87 -2z m-698 -40 c0 -5 -5 -10 -11 -10 -5 0 -7 5 -4 10 3
6 8 10 11 10 2 0 4 -4 4 -10z m0 -50 c0 -5 -5 -10 -11 -10 -5 0 -7 5 -4 10 3
6 8 10 11 10 2 0 4 -4 4 -10z m750 -10 c0 -5 -2 -10 -4 -10 -3 0 -8 5 -11 10
-3 6 -1 10 4 10 6 0 11 -4 11 -10z m-750 -50 c0 -5 -2 -10 -4 -10 -3 0 -8 5
-11 10 -3 6 -1 10 4 10 6 0 11 -4 11 -10z"/>
<path d="M7165 1790 c3 -5 8 -10 11 -10 2 0 4 5 4 10 0 6 -5 10 -11 10 -5 0
-7 -4 -4 -10z"/>
<path d="M3492 3348 c-15 -15 -17 -1192 -2 -1232 6 -18 6 -26 -1 -26 -6 0 -8
-4 -4 -9 3 -6 5 -88 3 -183 -6 -581 -7 -988 0 -984 9 6 8 -503 -2 -531 -4 -14
-3 -23 2 -23 11 0 10 -25 -1 -36 -13 -13 -8 -121 7 -133 9 -8 100 -11 311 -9
l299 3 2 48 3 47 -259 0 c-171 0 -261 4 -265 11 -4 5 -6 34 -6 62 6 205 5 307
-2 307 -4 0 -3 9 3 20 6 11 9 24 6 29 -3 5 -6 46 -7 92 -1 47 -6 90 -13 98 -8
11 -8 13 1 8 8 -5 11 20 11 93 0 55 -4 98 -7 95 -4 -2 -8 6 -8 18 -2 17 0 19
7 7 9 -13 10 -13 11 0 6 56 5 77 -3 93 -5 10 -5 24 1 35 7 12 5 22 -7 36 -9
11 -11 16 -4 12 15 -9 16 18 1 46 -8 15 -8 19 1 13 8 -5 11 0 10 16 -1 13 -2
26 -1 29 1 3 2 147 4 320 3 251 1 318 -10 328 -7 7 -13 19 -13 25 0 7 4 6 10
-3 7 -10 10 22 11 100 1 63 2 133 4 155 1 22 0 43 -2 47 -2 4 -4 101 -3 215 0
200 0 278 0 371 -1 23 -5 40 -10 37 -5 -3 -11 -1 -15 5 -3 5 2 10 13 10 16 0
18 6 12 48 -7 59 -2 84 15 80 8 -2 164 -151 347 -333 574 -568 899 -880 922
-882 16 -2 168 143 640 611 512 508 620 610 624 593 5 -20 6 -20 14 -1 5 12 6
8 1 -11 -4 -16 -8 -660 -10 -1430 l-3 -1400 -257 -3 c-170 -1 -261 -6 -270
-14 -8 -6 -12 -25 -10 -47 l4 -36 314 -2 c194 -2 308 1 300 6 -12 8 -13 15 -4
34 6 13 9 47 7 75 -3 29 0 53 6 57 5 3 10 11 10 16 0 6 -4 8 -8 5 -5 -3 -8 28
-8 69 0 41 4 75 8 75 5 0 8 8 8 18 0 12 -2 14 -8 4 -5 -7 -8 21 -7 63 1 41 5
78 8 82 4 3 7 13 7 22 0 14 -2 14 -10 1 -8 -12 -10 -11 -10 8 0 12 5 22 10 22
6 0 10 7 10 15 0 8 -5 15 -10 15 -7 0 -6 8 1 23 12 21 11 21 -6 7 -10 -8 -16
-10 -12 -4 3 6 7 51 8 100 1 49 5 106 9 126 5 22 4 35 -1 32 -5 -3 -9 -1 -9 5
0 5 6 11 13 14 9 3 9 9 -2 28 -10 16 -10 24 -2 27 6 2 11 11 11 20 0 15 -2 15
-10 2 -8 -12 -10 -9 -10 13 0 15 5 27 10 27 6 0 10 8 10 18 0 14 -2 15 -10 2
-7 -10 -10 17 -10 87 0 57 4 105 10 108 6 3 10 11 10 16 0 6 -5 7 -10 4 -15
-9 -10 195 4 214 8 11 8 13 -1 7 -17 -10 -17 26 -1 42 9 9 9 12 0 12 -15 0
-17 117 -2 155 7 17 7 24 0 20 -6 -3 -10 1 -10 9 0 8 5 18 10 21 6 3 10 24 10
46 0 22 -4 38 -8 35 -13 -8 -11 127 2 143 8 12 8 13 -1 7 -9 -5 -13 0 -13 14
0 12 4 19 8 16 13 -8 11 28 -2 36 -8 5 -7 13 2 28 8 13 8 20 1 20 -12 0 -7
358 6 379 6 10 4 12 -5 6 -10 -6 -12 -2 -6 16 12 40 14 69 5 63 -5 -3 -9 0 -9
5 0 6 5 11 10 11 6 0 10 5 10 11 0 5 -4 7 -10 4 -15 -9 -12 88 3 104 7 9 7 11
1 8 -16 -9 -19 199 -3 208 8 6 8 10 -2 16 -10 6 -10 13 -1 34 7 14 8 24 3 21
-9 -6 -5 199 4 215 4 5 1 9 -6 9 -22 0 -78 -61 -72 -79 3 -11 2 -12 -4 -3 -13
18 -56 -29 -47 -51 4 -12 1 -17 -11 -17 -10 0 -14 5 -9 13 9 15 -127 -114
-176 -168 -21 -22 -35 -47 -33 -55 3 -11 2 -12 -4 -2 -7 9 -16 5 -37 -17 -15
-16 -24 -31 -19 -33 4 -3 2 -3 -5 -1 -14 3 -24 -5 -52 -41 -9 -12 -10 -17 -2
-12 7 4 12 2 12 -4 0 -7 -8 -9 -19 -5 -13 4 -23 -2 -35 -19 -19 -30 -21 -40
-4 -30 7 5 8 3 3 -5 -5 -9 -11 -9 -17 -3 -13 13 -222 -193 -213 -208 4 -6 3
-9 -2 -8 -17 5 -54 -24 -49 -38 3 -9 1 -12 -4 -9 -6 4 -34 -18 -63 -47 -29
-29 -87 -85 -128 -124 -40 -39 -134 -133 -206 -208 -73 -75 -139 -136 -146
-136 -8 0 -26 11 -41 25 -15 14 -33 25 -41 25 -8 0 -17 4 -20 10 -4 6 1 7 12
3 10 -3 -11 21 -46 55 -47 45 -67 58 -74 49 -6 -8 -7 -7 -4 4 7 20 -137 164
-153 154 -5 -3 -10 0 -10 8 0 20 -39 59 -52 51 -6 -4 -8 -3 -5 3 8 13 -47 66
-58 56 -4 -5 -5 -3 -2 3 7 13 -206 228 -216 218 -4 -4 -7 -1 -7 7 0 16 -136
154 -151 154 -5 0 -10 4 -11 9 -2 5 -70 75 -151 155 -82 80 -179 176 -215 213
-37 38 -72 68 -77 68 -6 0 -16 9 -23 20 -14 23 -23 25 -40 8z m78 -78 c-19
-13 -30 -13 -30 0 0 6 10 10 23 10 18 0 19 -2 7 -10z m-73 -62 c-3 -7 -5 -2
-5 12 0 14 2 19 5 13 2 -7 2 -19 0 -25z m70 -14 c-3 -3 -12 -4 -19 -1 -8 3 -5
6 6 6 11 1 17 -2 13 -5z m-70 -36 c-3 -8 -6 -5 -6 6 -1 11 2 17 5 13 3 -3 4
-12 1 -19z m68 -428 c-3 -5 -12 -10 -18 -10 -7 0 -6 4 3 10 19 12 23 12 15 0z
m-68 -182 c-3 -7 -5 -2 -5 12 0 14 2 19 5 13 2 -7 2 -19 0 -25z m66 -43 c-3
-9 -8 -14 -10 -11 -3 3 -2 9 2 15 9 16 15 13 8 -4z m-66 -27 c-3 -7 -5 -2 -5
12 0 14 2 19 5 13 2 -7 2 -19 0 -25z m1823 -28 c0 -5 -5 -10 -11 -10 -5 0 -7
5 -4 10 3 6 8 10 11 10 2 0 4 -4 4 -10z m-1823 -22 c-3 -8 -6 -5 -6 6 -1 11 2
17 5 13 3 -3 4 -12 1 -19z m0 -90 c-3 -8 -6 -5 -6 6 -1 11 2 17 5 13 3 -3 4
-12 1 -19z m70 -38 c1 -11 -1 -22 -5 -24 -4 -2 -8 7 -8 20 -1 13 1 24 5 24 4
0 7 -9 8 -20z m-26 -2096 c9 -11 8 -14 -5 -14 -9 0 -16 5 -16 10 0 6 -7 10
-15 10 -8 0 -15 4 -15 9 0 13 37 2 51 -15z m324 16 c-3 -5 -14 -10 -23 -9 -14
0 -13 2 3 9 27 11 27 11 20 0z m-275 -15 c10 -12 9 -15 -8 -15 -11 0 -25 7
-32 15 -10 12 -9 15 8 15 11 0 25 -7 32 -15z m100 5 c0 -5 -5 -10 -11 -10 -5
0 -7 5 -4 10 3 6 8 10 11 10 2 0 4 -4 4 -10z m67 -5 c0 -8 -9 -15 -19 -15 -10
0 -18 7 -18 15 0 8 8 15 18 15 10 0 19 -7 19 -15z m158 5 c-3 -5 -11 -10 -16
-10 -6 0 -7 5 -4 10 3 6 11 10 16 10 6 0 7 -4 4 -10z m55 -4 c0 -8 -9 -14 -19
-13 -15 1 -17 4 -9 14 14 17 28 16 28 -1z m50 -1 c0 -8 -7 -15 -16 -15 -8 0
-13 4 -10 9 4 5 0 12 -6 14 -7 3 -3 6 10 6 13 1 22 -5 22 -14z m1725 5 c3 -6
-4 -10 -17 -10 -18 0 -20 2 -8 10 19 12 18 12 25 0z m112 -5 c0 -12 -3 -12
-16 -2 -12 9 -13 9 -7 0 4 -7 2 -13 -3 -13 -6 0 -11 7 -11 15 0 8 8 15 18 15
10 0 19 -7 19 -15z m61 3 c-7 -19 -35 -21 -41 -3 -5 11 0 15 19 15 16 0 24 -5
22 -12z m90 -13 c-3 -3 -9 2 -12 12 -6 14 -5 15 5 6 7 -7 10 -15 7 -18z m68
16 c-4 -5 0 -12 6 -14 7 -3 1 -6 -14 -6 -27 -1 -35 8 -21 22 10 10 35 8 29 -2z
m41 3 c-3 -3 -12 -4 -19 -1 -8 3 -5 6 6 6 11 1 17 -2 13 -5z"/>
<path d="M1015 3050 c-3 -5 -16 -10 -29 -10 -22 0 -67 -42 -93 -88 -18 -30
-16 -113 3 -151 15 -31 72 -81 91 -81 6 0 16 -6 22 -14 9 -10 7 -15 -6 -19
-10 -4 -26 -12 -35 -19 -14 -10 -27 -10 -63 0 -56 15 -355 17 -355 2 0 -5 -18
-10 -40 -10 -22 0 -40 5 -40 10 0 6 -7 10 -15 10 -8 0 -19 10 -26 23 -14 28
-76 87 -92 87 -7 0 -6 -4 3 -11 13 -9 13 -10 0 -6 -8 2 -15 10 -15 18 0 11
-17 14 -75 15 -41 0 -68 -1 -58 -3 9 -2 19 -11 22 -19 6 -17 -5 -19 -21 -3 -8
8 -13 8 -17 0 -4 -6 -12 -11 -17 -11 -6 0 -7 5 -3 12 4 6 -3 4 -15 -5 -27 -18
-64 -75 -56 -86 2 -5 -2 -14 -10 -21 -20 -16 -21 -100 -1 -100 8 0 12 -8 9
-23 -5 -27 35 -80 76 -101 34 -17 139 -18 171 -1 35 19 87 75 99 108 l11 28
682 -4 c578 -3 693 -6 748 -20 35 -8 68 -13 72 -11 4 3 8 0 8 -5 0 -6 4 -11
10 -11 18 0 125 -53 170 -84 69 -47 157 -135 202 -198 23 -32 45 -58 50 -58 5
0 6 -4 3 -10 -3 -5 5 -15 19 -21 14 -7 23 -16 19 -22 -3 -5 -9 -3 -14 4 -6 10
-9 10 -9 2 0 -6 5 -15 10 -18 6 -3 10 -14 10 -24 0 -10 6 -24 14 -31 8 -6 12
-18 9 -26 -3 -8 -1 -20 4 -27 5 -6 16 -37 23 -67 19 -70 19 -395 2 -412 -7 -7
-12 -29 -12 -49 0 -21 -4 -41 -10 -44 -5 -3 -10 -15 -10 -26 0 -10 -4 -19 -10
-19 -5 0 -10 -6 -10 -13 0 -18 -24 -67 -32 -67 -5 0 -8 -6 -8 -13 0 -7 -29
-50 -65 -95 -36 -45 -65 -85 -65 -89 0 -5 -3 -8 -7 -8 -9 -1 -78 -46 -113 -74
-14 -11 -31 -21 -37 -21 -7 0 -13 -4 -13 -10 0 -5 -6 -10 -14 -10 -7 0 -19 -6
-26 -14 -6 -8 -21 -16 -33 -18 -12 -2 -21 -8 -20 -14 1 -6 -10 -9 -26 -6 -16
2 -32 -1 -35 -7 -4 -6 -27 -11 -52 -11 -25 0 -55 -5 -67 -12 -12 -6 -57 -11
-101 -10 -49 1 -86 -4 -95 -11 -12 -9 -13 -9 -7 1 5 9 -2 12 -28 12 -19 0 -37
-6 -39 -12 -4 -10 -8 -10 -14 -2 -6 8 -91 12 -284 12 -152 0 -286 3 -297 7
-22 6 -22 7 -22 351 l0 345 -60 59 c-42 41 -65 58 -78 54 -13 -5 -14 -4 -3 4
10 8 6 18 -24 51 -21 22 -33 41 -27 41 6 0 12 -6 14 -12 3 -7 18 7 33 31 40
60 40 128 2 194 -15 26 -38 52 -50 59 -12 7 -58 13 -102 14 -72 1 -84 -2 -120
-27 -60 -41 -75 -72 -71 -156 2 -55 8 -78 25 -100 34 -43 90 -73 136 -73 34 0
47 -6 80 -40 21 -21 43 -36 48 -33 6 3 7 2 4 -4 -3 -5 21 -35 54 -67 l61 -57
-2 -352 c-1 -194 -2 -360 -1 -369 1 -17 29 -18 450 -18 402 0 460 2 562 20
179 31 316 98 438 214 176 169 283 392 295 621 9 162 -6 293 -47 406 -47 128
-127 267 -146 254 -4 -2 -8 6 -8 17 -2 24 -70 98 -90 98 -7 0 -12 6 -10 13 1
6 -6 11 -15 11 -10 -1 -16 2 -15 6 4 13 -86 81 -100 76 -8 -3 -11 -1 -8 4 3 5
-22 23 -56 40 -59 29 -101 41 -69 20 12 -8 11 -10 -7 -10 -14 0 -23 6 -23 15
0 8 -12 17 -27 20 -16 3 -44 10 -63 15 -69 18 -636 35 -646 19 -9 -15 -91 -11
-97 5 -3 8 -21 16 -39 18 l-33 4 35 16 c58 27 89 57 101 99 7 21 17 39 23 40
6 1 153 1 326 1 305 -1 319 -2 435 -28 66 -14 144 -38 174 -51 29 -14 61 -26
70 -28 9 -2 25 -7 37 -10 28 -9 46 16 42 57 -2 27 -7 33 -25 31 -14 -2 -22 2
-20 9 1 7 -8 14 -20 16 -13 2 -23 7 -23 11 0 13 -70 32 -91 26 -14 -5 -19 -3
-15 3 4 7 -11 16 -36 22 -24 7 -59 16 -78 21 -42 11 -29 11 -430 13 -179 1
-335 3 -347 4 -12 1 -29 16 -41 35 -32 54 -165 102 -187 67z m80 -92 c15 -7
35 -29 46 -50 19 -37 19 -39 2 -66 -26 -40 -44 -51 -84 -52 -36 0 -78 33 -92
73 -10 27 10 65 45 87 38 23 48 24 83 8z m892 -34 c-3 -3 -12 -4 -19 -1 -8 3
-5 6 6 6 11 1 17 -2 13 -5z m133 -38 c0 -3 -4 -8 -10 -11 -5 -3 -10 -1 -10 4
0 6 5 11 10 11 6 0 10 -2 10 -4z m-383 -22 c-3 -3 -12 -4 -19 -1 -8 3 -5 6 6
6 11 1 17 -2 13 -5z m243 -4 c0 -5 -7 -10 -15 -10 -8 0 -15 5 -15 10 0 6 7 10
15 10 8 0 15 -4 15 -10z m325 -100 c-3 -5 -12 -7 -20 -3 -21 7 -19 13 6 13 11
0 18 -4 14 -10z m-1905 -28 c0 -13 -12 -22 -22 -16 -10 6 -1 24 13 24 5 0 9
-4 9 -8z m-100 -33 c35 -13 53 -46 52 -94 -2 -48 -28 -75 -67 -68 -18 4 -25 1
-25 -11 0 -9 -2 -16 -4 -16 -2 0 -11 -3 -19 -6 -12 -4 -14 0 -10 14 4 15 -2
20 -25 25 -23 5 -33 14 -42 41 -15 46 -4 81 34 111 32 26 50 27 106 4z m1455
-117 c-3 -3 -11 0 -18 7 -9 10 -8 11 6 5 10 -3 15 -9 12 -12z m-1380 -11 c3
-5 1 -12 -5 -16 -5 -3 -10 1 -10 9 0 18 6 21 15 7z m1750 -21 c3 -5 1 -10 -4
-10 -6 0 -11 5 -11 10 0 6 2 10 4 10 3 0 8 -4 11 -10z m-1875 -80 c0 -5 -2
-10 -4 -10 -3 0 -8 5 -11 10 -3 6 -1 10 4 10 6 0 11 -4 11 -10z m436 -471 c19
-18 24 -33 24 -70 0 -40 -4 -51 -30 -72 -25 -21 -35 -24 -66 -17 -90 20 -121
101 -62 160 28 28 37 31 71 27 21 -3 50 -16 63 -28z m164 -339 c0 -5 -7 -7
-15 -4 -8 4 -12 10 -9 15 6 11 24 2 24 -11z m55 -58 c-3 -3 -11 0 -18 7 -9 10
-8 11 6 5 10 -3 15 -9 12 -12z m1520 -262 c3 -5 1 -10 -4 -10 -6 0 -11 5 -11
10 0 6 2 10 4 10 3 0 8 -4 11 -10z"/>
<path d="M2503 2623 c-37 -25 -29 -61 26 -125 27 -31 51 -55 53 -52 3 2 5 -2
5 -8 0 -7 17 -40 39 -73 21 -33 48 -81 60 -106 12 -26 27 -49 33 -53 5 -4 8
-13 5 -20 -3 -8 -1 -17 5 -21 6 -3 11 -15 11 -26 0 -10 6 -19 13 -19 9 0 12
-9 9 -29 -2 -16 1 -32 7 -35 6 -4 11 -27 11 -51 0 -24 5 -47 10 -50 6 -4 10
-85 10 -210 0 -125 -4 -206 -10 -210 -5 -3 -10 -24 -10 -45 0 -21 -4 -42 -10
-45 -5 -3 -10 -19 -10 -36 0 -16 -4 -29 -10 -29 -5 0 -10 -11 -10 -25 0 -14
-4 -25 -10 -25 -5 0 -10 -8 -10 -18 0 -25 -48 -122 -60 -122 -6 0 -10 -9 -10
-20 0 -11 -3 -20 -8 -20 -4 0 -14 -15 -21 -32 -8 -18 -23 -40 -33 -49 -10 -9
-18 -21 -18 -26 0 -5 -14 -22 -31 -39 -34 -31 -110 -129 -120 -154 -11 -25 9
-50 40 -50 23 0 42 14 89 65 149 163 255 364 313 593 24 94 30 144 33 257 3
77 1 167 -3 200 -8 66 -53 236 -77 293 l-15 36 -20 -29 c-13 -18 -18 -22 -14
-10 18 54 17 78 -5 126 -13 27 -29 49 -37 49 -7 0 -13 11 -13 26 0 33 -48 97
-68 89 -11 -4 -12 -2 -4 8 9 11 4 22 -23 52 -19 20 -35 41 -35 45 0 10 -35 40
-46 39 -5 0 -19 -7 -31 -16z m128 -196 c-6 -8 -7 -18 -3 -22 4 -5 1 -5 -6 -1
-10 6 -10 11 -1 22 6 8 14 14 16 14 3 0 0 -6 -6 -13z m256 -704 c-2 -16 -4 -5
-4 22 0 28 2 40 4 28 2 -13 2 -35 0 -50z"/>
<path d="M7935 2493 c-26 -26 -53 -60 -61 -76 -30 -58 6 -163 71 -206 44 -29
130 -40 175 -21 35 14 100 86 100 109 0 12 3 12 12 3 9 -9 117 -12 425 -12
388 0 412 1 407 18 -5 16 -5 16 6 0 10 -16 31 -18 199 -18 l188 0 6 -36 c7
-43 47 -99 87 -119 110 -57 240 50 216 178 -3 19 -13 42 -21 53 -13 17 -13 14
0 -25 17 -49 21 -106 6 -82 -7 11 -13 12 -24 3 -11 -9 -13 -7 -11 11 1 12 3
30 3 40 1 10 6 15 11 12 6 -3 10 -1 10 4 0 6 -5 11 -11 11 -5 0 -7 5 -4 10 3
6 1 10 -4 10 -6 0 -11 -5 -11 -12 0 -6 -3 -8 -6 -5 -4 4 -1 13 6 22 10 12 10
15 -1 15 -11 0 -12 2 -1 9 10 6 7 12 -11 24 -26 17 -147 23 -147 6 0 -5 -6 -9
-13 -9 -7 0 -22 -8 -33 -18 -12 -12 -32 -17 -56 -16 -21 2 -38 -1 -38 -7 0 -5
-5 -9 -11 -9 -5 0 -8 4 -5 9 3 5 -239 8 -569 8 -316 0 -577 2 -579 4 -3 2 -18
29 -33 59 -38 72 -84 100 -170 100 -61 0 -63 -1 -108 -47z m143 -53 c4 0 19
-11 35 -24 33 -28 38 -93 10 -118 -66 -57 -182 9 -156 89 10 30 68 67 91 58 8
-3 17 -5 20 -5z m1575 -102 c52 -40 50 -106 -3 -128 -47 -19 -110 25 -110 76
0 47 74 81 113 52z m97 -108 c0 -5 -7 -7 -15 -4 -8 4 -15 8 -15 10 0 2 7 4 15
4 8 0 15 -4 15 -10z"/>
<path d="M6222 2350 c0 -19 2 -27 5 -17 2 9 2 25 0 35 -3 9 -5 1 -5 -18z"/>
<path d="M3822 2330 c-19 -10 -42 -26 -52 -35 -20 -18 -33 -55 -19 -55 5 0 9
-5 9 -11 0 -6 -7 -9 -15 -5 -11 4 -15 -3 -17 -27 -4 -90 11 -126 65 -160 23
-15 48 -36 55 -47 10 -17 13 -138 14 -556 1 -328 5 -537 11 -541 5 -3 3 -9 -4
-14 -12 -7 -12 -12 0 -31 7 -13 10 -20 6 -16 -4 4 -21 -9 -38 -29 -17 -19 -41
-39 -53 -43 -33 -13 -56 -70 -56 -140 0 -50 5 -66 27 -95 35 -47 73 -65 135
-65 66 0 109 19 147 65 32 38 44 86 35 144 -5 36 -60 99 -107 122 l-27 14 1
327 c1 256 -1 327 -11 331 -10 4 -10 6 0 6 9 1 12 62 12 271 l0 270 33 14 c74
30 117 122 96 200 -28 102 -156 157 -247 106z m53 0 c-3 -5 -10 -10 -16 -10
-5 0 -9 5 -9 10 0 6 7 10 16 10 8 0 12 -4 9 -10z m65 0 c0 -5 -7 -7 -15 -4 -8
4 -15 8 -15 10 0 2 7 4 15 4 8 0 15 -4 15 -10z m0 -86 c40 -16 40 -17 40 -69
0 -50 -2 -55 -32 -69 -72 -36 -130 -8 -132 63 -1 35 4 47 27 67 33 28 44 29
97 8z m-70 -1463 c0 -5 -9 -7 -20 -4 -11 3 -20 7 -20 9 0 2 9 4 20 4 11 0 20
-4 20 -9z m84 -92 c24 -19 27 -27 25 -75 -1 -29 -6 -51 -10 -48 -4 2 -10 0
-14 -6 -3 -5 -25 -10 -49 -10 -56 0 -90 34 -89 87 2 68 80 97 137 52z m-197
-121 c-3 -8 -6 -5 -6 6 -1 11 2 17 5 13 3 -3 4 -12 1 -19z"/>
<path d="M5758 2334 c-40 -21 -88 -73 -88 -94 0 -10 -4 -22 -10 -25 -12 -8
-13 -59 -1 -83 5 -9 14 -28 21 -42 6 -14 35 -41 63 -60 l52 -35 3 -588 c2
-514 0 -591 -13 -610 -9 -12 -19 -22 -23 -23 -40 -5 -92 -50 -92 -81 0 -13 -6
-32 -12 -43 -10 -15 -10 -22 0 -32 6 -6 12 -26 12 -43 0 -22 10 -40 33 -62 41
-40 75 -53 140 -53 158 0 229 208 103 304 -26 19 -40 25 -49 18 -9 -8 -12 125
-10 601 0 337 -2 601 -7 587 l-8 -25 -1 25 c-1 26 7 34 66 70 69 41 93 147 51
222 -42 73 -158 110 -230 72z m122 -4 c11 -7 3 -8 -25 -4 -22 3 -42 8 -44 10
-9 9 55 3 69 -6z m74 -45 c-7 -16 -24 -21 -24 -6 0 8 7 13 27 20 1 1 0 -6 -3
-14z m-95 -36 c32 -11 61 -53 61 -86 -1 -56 -92 -93 -136 -55 -46 39 -41 111
9 136 18 9 32 16 33 16 1 0 15 -5 33 -11z m18 -441 c-3 -8 -6 -5 -6 6 -1 11 2
17 5 13 3 -3 4 -12 1 -19z m0 -50 c-3 -8 -6 -5 -6 6 -1 11 2 17 5 13 3 -3 4
-12 1 -19z m0 -380 c-2 -13 -4 -3 -4 22 0 25 2 35 4 23 2 -13 2 -33 0 -45z m0
-75 c-3 -10 -5 -4 -5 12 0 17 2 24 5 18 2 -7 2 -21 0 -30z m0 -105 c-3 -8 -6
-5 -6 6 -1 11 2 17 5 13 3 -3 4 -12 1 -19z m0 -80 c-2 -13 -4 -3 -4 22 0 25 2
35 4 23 2 -13 2 -33 0 -45z m0 -140 c-3 -8 -6 -5 -6 6 -1 11 2 17 5 13 3 -3 4
-12 1 -19z m0 -55 c-3 -10 -5 -4 -5 12 0 17 2 24 5 18 2 -7 2 -21 0 -30z m17
-239 c30 -31 32 -57 7 -99 -16 -27 -23 -30 -66 -30 -45 0 -51 3 -68 33 -50 85
56 166 127 96z"/>
<path d="M3092 2313 c2 -10 8 -21 13 -25 6 -5 5 -11 -3 -16 -7 -5 -10 -15 -7
-23 3 -9 -3 -26 -15 -39 -15 -18 -20 -19 -20 -7 0 9 7 20 14 24 12 6 9 12 -15
25 -31 18 -34 17 -20 -10 6 -9 12 -29 15 -44 4 -15 14 -34 24 -44 9 -10 17
-31 18 -48 1 -17 4 -42 9 -55 5 -15 4 -21 -3 -17 -7 4 -7 -4 0 -26 6 -18 14
-73 18 -123 8 -103 1 -365 -10 -365 -4 0 -8 -18 -8 -39 0 -22 -5 -49 -11 -60
-8 -14 -8 -21 2 -24 9 -4 8 -8 -3 -16 -8 -6 -10 -11 -5 -11 6 0 11 -9 12 -19
2 -21 -22 -35 -39 -25 -7 5 -9 -2 -4 -20 5 -19 2 -28 -9 -32 -8 -4 -15 -17
-15 -29 0 -13 -4 -27 -10 -30 -5 -3 -10 -15 -10 -26 0 -10 -4 -19 -10 -19 -5
0 -10 -9 -10 -20 0 -11 -5 -20 -11 -20 -7 0 -9 -10 -7 -25 4 -18 1 -25 -11
-26 -11 0 -8 -3 7 -9 27 -11 29 -24 3 -17 -12 3 -27 -3 -37 -14 -16 -18 -16
-19 0 -19 10 0 14 -5 11 -11 -4 -6 -14 -8 -23 -4 -9 3 -13 3 -9 -1 4 -4 -1
-13 -11 -20 -9 -7 -17 -17 -17 -22 0 -5 -19 -34 -42 -65 -26 -35 -37 -58 -30
-61 7 -2 5 -5 -4 -5 -9 -1 -24 -12 -33 -26 -25 -38 -163 -172 -223 -216 -29
-22 -53 -44 -53 -49 0 -6 -7 -10 -16 -10 -9 0 -24 -8 -33 -17 -21 -23 -53 -42
-181 -104 -58 -28 -113 -55 -122 -60 -10 -5 -29 -9 -42 -9 -14 0 -28 -4 -31
-10 -3 -5 -21 -10 -40 -10 -19 0 -37 -4 -40 -10 -3 -5 -25 -10 -49 -10 -23 0
-46 -4 -52 -10 -11 -11 -185 -16 -202 -6 -7 4 -12 22 -12 41 0 24 5 35 19 40
11 3 35 23 54 44 85 94 42 238 -83 275 -66 20 -112 6 -172 -50 l-48 -45 -306
1 c-183 1 -310 -2 -316 -8 -5 -5 -8 -25 -6 -43 l3 -34 310 -3 c177 -1 313 -6
319 -12 5 -5 10 -21 12 -36 4 -35 29 -61 85 -90 41 -20 58 -43 59 -77 0 -4
-219 -6 -487 -5 l-488 3 -5 480 c-3 264 -9 486 -13 493 -5 6 -22 12 -39 12
-39 0 -59 -25 -47 -58 5 -13 7 -28 3 -33 -9 -16 -6 -981 4 -991 6 -6 285 -8
683 -5 745 5 742 4 930 71 231 83 406 193 579 366 117 116 175 191 158 201
-10 7 -9 9 4 9 14 0 78 68 78 84 0 3 16 30 35 60 19 30 35 58 35 63 0 4 13 34
30 68 37 74 75 174 91 239 10 39 10 53 0 69 -11 17 -11 19 2 14 40 -15 73 332
47 503 -16 106 -32 180 -40 180 -3 0 -5 13 -2 28 4 31 -53 192 -69 192 -6 0
-9 -8 -7 -17z m6 -140 c1 -26 1 -27 -13 -9 -8 10 -12 23 -9 27 10 17 20 9 22
-18z m82 -119 c0 -8 -4 -12 -10 -9 -5 3 -10 13 -10 21 0 8 5 12 10 9 6 -3 10
-13 10 -21z m-107 -802 c-18 -5 -27 3 -18 17 4 7 10 7 20 -2 11 -10 11 -13 -2
-15z m17 -24 c0 -5 -4 -6 -10 -3 -11 7 -14 -8 -3 -19 13 -13 12 -44 -2 -56
-17 -14 -35 -5 -35 17 0 13 3 13 15 3 9 -7 18 -11 21 -8 7 8 -14 58 -26 58 -5
0 -10 4 -10 9 0 5 11 9 25 9 14 0 25 -5 25 -10z m-30 -108 c0 -5 -4 -10 -10
-10 -5 0 -10 5 -10 10 0 6 5 10 10 10 6 0 10 -4 10 -10z m-1375 -551 c13 -13
19 -31 18 -59 -1 -22 2 -40 8 -40 5 0 9 -5 9 -11 0 -5 -5 -7 -10 -4 -6 4 -24
-1 -42 -9 -40 -21 -41 -21 -89 9 -38 24 -40 28 -37 68 3 37 7 44 38 60 40 20
75 15 105 -14z m-945 -359 c0 -5 8 -7 18 -4 14 5 14 4 3 -4 -10 -7 -21 -7 -33
-1 -22 12 -23 19 -3 19 8 0 15 -4 15 -10z m110 0 c0 -5 -4 -10 -10 -10 -5 0
-10 5 -10 10 0 6 5 10 10 10 6 0 10 -4 10 -10z m340 6 c0 -3 -4 -8 -10 -11 -5
-3 -10 -1 -10 4 0 6 5 11 10 11 6 0 10 -2 10 -4z m160 -11 c0 -8 -2 -15 -4
-15 -2 0 -6 7 -10 15 -3 8 -1 15 4 15 6 0 10 -7 10 -15z m60 5 c0 -5 -7 -7
-15 -4 -8 4 -15 8 -15 10 0 2 7 4 15 4 8 0 15 -4 15 -10z m217 -5 c0 -8 -4
-12 -9 -9 -5 3 -6 10 -3 15 9 13 12 11 12 -6z m119 6 c-4 -5 0 -12 6 -14 7 -3
3 -6 -9 -6 -16 -1 -21 3 -17 14 4 8 10 15 16 15 5 0 7 -4 4 -9z m-486 -17 c0
-2 -7 -4 -15 -4 -8 0 -15 4 -15 10 0 5 7 7 15 4 8 -4 15 -8 15 -10z"/>
<path d="M3055 2290 c4 -6 11 -8 16 -5 14 9 11 15 -7 15 -8 0 -12 -5 -9 -10z"/>
<path d="M1260 2188 c-19 -21 -20 -32 -20 -453 0 -367 2 -437 15 -462 24 -48
48 -51 105 -13 25 17 78 51 205 132 39 25 124 80 190 124 66 43 124 81 130 83
21 9 152 101 164 115 21 25 8 50 -35 71 -42 21 -93 53 -366 228 -32 20 -60 37
-62 37 -3 0 -49 28 -103 63 -153 98 -190 110 -223 75z m298 -245 c78 -51 144
-93 147 -93 4 0 165 -102 184 -117 6 -4 -51 -63 -60 -63 -5 0 -28 -13 -52 -30
-25 -16 -49 -30 -54 -30 -5 0 -18 -8 -29 -17 -27 -24 -53 -41 -91 -58 -18 -9
-33 -20 -33 -25 0 -6 -9 -10 -20 -10 -11 0 -20 -4 -20 -8 0 -5 -12 -15 -27
-23 -16 -7 -41 -24 -57 -37 -27 -22 -89 -52 -107 -52 -10 0 -12 683 -2 693 7
8 27 -4 221 -130z"/>
<path d="M6221 1754 c0 -11 3 -14 6 -6 3 7 2 16 -1 19 -3 4 -6 -2 -5 -13z"/>
<path d="M4928 1729 c-10 -5 -18 -21 -18 -34 0 -13 -4 -27 -10 -30 -5 -3 -10
-19 -10 -36 0 -16 -4 -29 -10 -29 -5 0 -10 -11 -10 -24 0 -14 -4 -28 -10 -31
-5 -3 -10 -16 -10 -27 0 -26 -17 -83 -36 -121 -8 -16 -11 -33 -8 -38 3 -6 -1
-21 -10 -34 -9 -13 -16 -33 -16 -44 0 -11 -4 -23 -10 -26 -5 -3 -10 -19 -10
-36 0 -16 -4 -29 -10 -29 -5 0 -10 -15 -10 -33 0 -18 -4 -37 -9 -43 -5 -5 -11
-28 -14 -52 -4 -35 -2 -44 14 -53 29 -15 59 -2 59 25 0 13 16 67 35 119 19 53
36 106 37 119 2 13 6 28 9 33 3 6 16 44 28 85 13 41 41 132 63 202 22 70 37
132 33 138 -8 13 -45 13 -67 -1z"/>
<path d="M5142 1666 c-6 -13 -8 -33 -5 -44 4 -18 106 -90 201 -142 15 -8 42
-26 61 -39 27 -19 35 -21 42 -10 6 10 8 6 7 -11 -2 -31 -35 -70 -60 -70 -10 0
-18 -4 -18 -10 0 -5 -8 -10 -18 -10 -10 0 -29 -11 -42 -25 -13 -14 -55 -41
-94 -60 -39 -19 -77 -45 -85 -56 -11 -19 -10 -24 12 -46 l24 -25 57 32 c32 18
53 36 49 42 -3 7 -1 8 5 4 14 -8 114 53 107 65 -4 5 0 6 8 3 8 -3 20 2 27 11
7 8 17 15 22 15 5 0 29 14 53 30 24 17 48 30 53 30 14 0 52 45 52 63 0 18 -33
40 -45 29 -5 -4 -5 -1 -1 6 4 7 1 12 -8 12 -9 0 -16 5 -16 10 0 6 -4 10 -10
10 -5 0 -32 16 -59 35 -26 19 -51 35 -55 35 -4 0 -30 16 -59 35 -29 19 -53 31
-55 25 -2 -5 -8 -10 -14 -10 -6 0 -8 6 -5 13 5 14 -81 77 -106 77 -7 0 -19
-11 -25 -24z m294 -331 c0 -32 0 -33 -14 -14 -11 16 -11 23 -2 34 16 19 15 20
16 -20z m-119 -57 c-3 -8 -6 -5 -6 6 -1 11 2 17 5 13 3 -3 4 -12 1 -19z"/>
<path d="M4536 1671 c-3 -5 -15 -7 -26 -4 -13 4 -26 -1 -35 -13 -8 -11 -15
-15 -15 -11 0 5 -13 -1 -29 -12 -16 -12 -34 -21 -40 -21 -6 0 -11 -4 -11 -10
0 -5 -6 -10 -13 -10 -7 0 -24 -10 -37 -22 -25 -23 -71 -52 -102 -64 -10 -3
-18 -10 -18 -14 0 -4 -13 -13 -30 -20 -16 -7 -30 -16 -30 -21 0 -5 -7 -9 -15
-9 -18 0 -38 -37 -31 -57 4 -8 13 -13 21 -9 8 3 14 0 12 -7 -1 -7 6 -11 16
-10 10 0 16 -1 13 -4 -7 -7 26 -33 103 -80 76 -46 85 -51 136 -84 22 -14 61
-38 87 -53 l47 -27 11 22 c10 17 9 24 -1 31 -11 8 -10 9 3 4 32 -10 29 12 -5
38 -19 14 -37 26 -40 26 -4 0 -46 26 -94 58 -48 32 -109 70 -135 85 -26 15
-47 33 -45 40 1 7 -4 11 -11 9 -8 -1 -11 2 -7 8 5 8 11 8 20 0 15 -13 23 -9
150 71 44 27 104 64 133 80 39 23 52 37 52 54 0 25 -25 52 -34 36z m-326 -331
c0 -5 -2 -10 -4 -10 -3 0 -8 5 -11 10 -3 6 -1 10 4 10 6 0 11 -4 11 -10z m154
-95 c-4 -8 -11 -12 -16 -9 -6 4 -5 10 3 15 19 12 19 11 13 -6z"/>
<path d="M2150 691 c-14 -8 -53 -25 -95 -42 -11 -4 -42 -13 -68 -21 -63 -17
-83 -38 -66 -70 24 -46 42 -45 184 9 99 38 125 56 125 88 0 39 -41 57 -80 36z"/>
</g>
</svg>
